Coordinates
version=1
nRows=11
nColumns=40
inDegrees=yes

Units are S.I. units (second, meters, Newtons, ...)
If the header above contains a line with 'inDegrees', this indicates whether rotational values are in degrees (yes) or radians (no).

endheader
time	pelvis_tilt	pelvis_list	pelvis_rotation	pelvis_tx	pelvis_ty	pelvis_tz	hip_flexion_r	hip_adduction_r	hip_rotation_r	knee_angle_r	knee_angle_r_beta	ankle_angle_r	subtalar_angle_r	mtp_angle_r	hip_flexion_l	hip_adduction_l	hip_rotation_l	knee_angle_l	knee_angle_l_beta	ankle_angle_l	subtalar_angle_l	mtp_angle_l	lumbar_extension	lumbar_bending	lumbar_rotation	arm_flex_r	arm_add_r	arm_rot_r	elbow_flex_r	pro_sup_r	wrist_flex_r	wrist_dev_r	arm_flex_l	arm_add_l	arm_rot_l	elbow_flex_l	pro_sup_l	wrist_flex_l	wrist_dev_l
      2.29500000	    -17.91107424	     -0.35116477	      0.91200576	      0.16017737	      0.87349695	     -1.18500355	     29.10116795	    -23.66997295	    -28.42606219	     19.24101927	      0.33581914	      0.26832626	     -4.68209967	      0.00000000	     31.12416040	    -22.28244441	    -16.65824203	     17.39777804	      0.30364851	      0.76154758	      1.89765883	      0.00000000	      0.00000000	      0.00000000	      0.00000000	     26.16345727	    -11.79201909	     26.16345727	     79.68390838	     44.54284493	      0.00000000	      0.00000000	     26.16345727	    -11.79201909	     26.16345727	     79.68390838	     44.54284493	      0.00000000	      0.00000000
      2.30000000	    -18.11833699	     -0.32759375	      1.05734254	      0.15962516	      0.87285390	     -1.18550675	     29.47023978	    -23.87113181	    -28.33714740	     19.56392627	      0.34145493	      0.32856077	     -4.73300892	      0.00000000	     31.58575755	    -22.20441318	    -16.42599986	     17.65782976	      0.30818727	      0.82096836	      1.91740417	      0.00000000	      0.00000000	      0.00000000	      0.00000000	     26.30923915	    -11.82958476	     26.30923915	     79.59276018	     44.55879545	      0.00000000	      0.00000000	     26.30923915	    -11.82958476	     26.30923915	     79.59276018	     44.55879545	      0.00000000	      0.00000000
      2.30500000	    -18.44850507	     -0.24313010	      1.13215792	      0.15871252	      0.87181013	     -1.18587738	     30.13144978	    -24.12711395	    -28.09346868	     20.05432138	      0.35001394	      0.35399539	     -5.03436416	      0.00000000	     32.22962343	    -22.11431699	    -16.21838970	     18.06692768	      0.31532737	      0.92907995	      1.76435391	      0.00000000	      0.00000000	      0.00000000	      0.00000000	     26.48492398	    -11.87498396	     26.48492398	     79.48149903	     44.57914980	      0.00000000	      0.00000000	     26.48492398	    -11.87498396	     26.48492398	     79.48149903	     44.57914980	      0.00000000	      0.00000000
      2.31000000	    -18.87239998	     -0.12420323	      1.11758272	      0.15766296	      0.87051577	     -1.18603649	     31.00941182	    -24.39243115	    -27.72744171	     20.65723609	      0.36053678	      0.44587167	     -5.31161995	      0.00000000	     32.96420340	    -22.05995948	    -16.14319542	     18.53280834	      0.32345853	      1.04919583	      1.58807262	      0.00000000	      0.00000000	      0.00000000	      0.00000000	     26.67498706	    -11.92419550	     26.67498706	     79.36010902	     44.60191376	      0.00000000	      0.00000000	     26.67498706	    -11.92419550	     26.67498706	     79.36010902	     44.60191376	      0.00000000	      0.00000000
      2.31500000	    -19.15974971	     -0.01479177	      1.17713717	      0.15676041	      0.86945134	     -1.18636461	     31.65898827	    -24.68436729	    -27.47796135	     21.19560817	      0.36993315	      0.55102381	     -5.49332009	      0.00000000	     33.56350422	    -21.97679988	    -16.02430264	     18.98226414	      0.33130301	      1.20452504	      1.54014612	      0.00000000	      0.00000000	      0.00000000	      0.00000000	     26.84154728	    -11.96696627	     26.84154728	     79.25675536	     44.62011043	      0.00000000	      0.00000000	     26.84154728	    -11.96696627	     26.84154728	     79.25675536	     44.62011043	      0.00000000	      0.00000000
      2.32000000	    -19.21893836	     -0.05347151	      1.23348871	      0.15601011	      0.86882817	     -1.18670073	     31.98183846	    -24.83163531	    -27.43830310	     21.67414245	      0.37828515	      0.63517642	     -5.47865648	      0.00000000	     33.94007024	    -22.03897735	    -15.85024484	     19.40499761	      0.33868110	      1.26942617	      1.36945773	      0.00000000	      0.00000000	      0.00000000	      0.00000000	     26.98346081	    -12.00285181	     26.98346081	     79.17339039	     44.63299498	      0.00000000	      0.00000000	     26.98346081	    -12.00285181	     26.98346081	     79.17339039	     44.63299498	      0.00000000	      0.00000000
      2.32500000	    -19.28992325	     -0.08071529	      1.30682904	      0.15523078	      0.86814250	     -1.18706976	     32.31374326	    -24.99733365	    -27.37393238	     22.15088415	      0.38660586	      0.72390432	     -5.48364574	      0.00000000	     34.34174290	    -22.08184079	    -15.66775916	     19.83798958	      0.34623824	      1.34536275	      1.22893258	      0.00000000	      0.00000000	      0.00000000	      0.00000000	     27.12451315	    -12.03839349	     27.12451315	     79.09140720	     44.64550442	      0.00000000	      0.00000000	     27.12451315	    -12.03839349	     27.12451315	     79.09140720	     44.64550442	      0.00000000	      0.00000000
      2.33000000	    -20.35621433	      0.37509164	      1.18166359	      0.15343860	      0.86506206	     -1.18687634	     34.33015965	    -25.59387300	    -26.42038531	     23.22402610	      0.40533572	      1.00308387	     -6.09641947	      0.00000000	     35.83069442	    -21.84468685	    -15.82595570	     20.65087967	      0.36042584	      1.73645788	      1.19506877	      0.00000000	      0.00000000	      0.00000000	      0.00000000	     27.37809365	    -12.10365499	     27.37809365	     78.93198653	     44.67515398	      0.00000000	      0.00000000	     27.37809365	    -12.10365499	     27.37809365	     78.93198653	     44.67515398	      0.00000000	      0.00000000
      2.33500000	    -20.36770420	      0.33883676	      1.26618301	      0.15269263	      0.86440834	     -1.18726227	     34.58603271	    -25.75740784	    -26.35318837	     23.68472094	      0.41337636	      1.08259877	     -6.08086529	      0.00000000	     36.17620414	    -21.89037179	    -15.63922968	     21.07734439	      0.36786906	      1.79734945	      1.07985239	      0.00000000	      0.00000000	      0.00000000	      0.00000000	     27.50809313	    -12.13609918	     27.50809313	     78.85879471	     44.68561272	      0.00000000	      0.00000000	     27.50809313	    -12.13609918	     27.50809313	     78.85879471	     44.68561272	      0.00000000	      0.00000000
      2.34000000	    -20.99206265	      0.53353114	      1.28662094	      0.15125595	      0.86216708	     -1.18740719	     35.85983852	    -26.15527155	    -25.84819161	     24.54309730	      0.42835786	      1.30149449	     -6.46809799	      0.00000000	     37.29101468	    -21.81312482	    -15.54969814	     21.86313606	      0.38158371	      2.13215428	      1.00841660	      0.00000000	      0.00000000	      0.00000000	      0.00000000	     27.69776040	    -12.18411978	     27.69776040	     78.74601895	     44.70436874	      0.00000000	      0.00000000	     27.69776040	    -12.18411978	     27.69776040	     78.74601895	     44.70436874	      0.00000000	      0.00000000
      2.34500000	    -20.94250051	      0.49264581	      1.32111902	      0.15042565	      0.86154512	     -1.18762044	     36.07327475	    -26.27742182	    -25.78749079	     24.97565012	      0.43590733	      1.34243989	     -6.40304703	      0.00000000	     37.55619602	    -21.89052614	    -15.33119041	     22.27755249	      0.38881664	      2.14564387	      0.89278965	      0.00000000	      0.00000000	      0.00000000	      0.00000000	     27.81452175	    -12.21301333	     27.81452175	     78.68204286	     44.71309246	      0.00000000	      0.00000000	     27.81452175	    -12.21301333	     27.81452175	     78.68204286	     44.71309246	      0.00000000	      0.00000000
